<svg width="458" height="612" xmlns="http://www.w3.org/2000/svg" xmlns:xlink="http://www.w3.org/1999/xlink" xmlns:svgjs="http://svgjs.com/svgjs" viewBox="0 616 458 612"><svg width="458" height="612" xmlns="http://www.w3.org/2000/svg" xmlns:xlink="http://www.w3.org/1999/xlink" xmlns:svgjs="http://svgjs.com/svgjs" viewBox="76.996 0 304.009 612" fill="#fff" opacity=".102" y="616"><svg xmlns="http://www.w3.org/2000/svg" xmlns:xlink="http://www.w3.org/1999/xlink" width="458" height="612" viewBox="154 -616 458 922"><path paint-order="stroke fill markers" fill-rule="evenodd" d="M306-616c-152 0-152 0-152 922 0-169.218 0-306 152-306 169.218 0 306 136.782 306 306 0-922-136.782-922-306-922z"/></svg></svg><svg width="366" height="520" xmlns="http://www.w3.org/2000/svg" xmlns:xlink="http://www.w3.org/1999/xlink" xmlns:svgjs="http://svgjs.com/svgjs" viewBox="84.694 0 196.612 520" fill="#fff" opacity=".102" y="708"><svg xmlns="http://www.w3.org/2000/svg" xmlns:xlink="http://www.w3.org/1999/xlink" width="366" height="520" viewBox="154 -708 366 968"><path paint-order="stroke fill markers" fill-rule="evenodd" d="M260-708c-106 0-106 0-106 968 0-143.78 0-260 106-260 143.78 0 260 116.22 260 260 0-968-116.22-968-260-968z"/></svg></svg><svg width="286" height="440" xmlns="http://www.w3.org/2000/svg" xmlns:xlink="http://www.w3.org/1999/xlink" xmlns:svgjs="http://svgjs.com/svgjs" viewBox="80.579 0 124.841 440" fill="#fff" opacity=".102" y="788"><svg xmlns="http://www.w3.org/2000/svg" width="286" height="440" viewBox="154 -788 286 1008"><path paint-order="stroke fill markers" fill-rule="evenodd" d="M220-788c-66 0-66 0-66 1008 0-121.66 0-220 66-220 121.66 0 220 98.34 220 220 0-1008-98.34-1008-220-1008z"/></svg></svg></svg>